<?xml version="1.0" encoding="utf-8" standalone="no"?>
<!DOCTYPE svg PUBLIC "-//W3C//DTD SVG 1.1//EN"
  "http://www.w3.org/Graphics/SVG/1.1/DTD/svg11.dtd">
<svg xmlns:xlink="http://www.w3.org/1999/xlink" width="460.8pt" height="345.6pt" viewBox="0 0 460.8 345.6" xmlns="http://www.w3.org/2000/svg" version="1.1">
 <metadata>
  <rdf:RDF xmlns:dc="http://purl.org/dc/elements/1.1/" xmlns:cc="http://creativecommons.org/ns#" xmlns:rdf="http://www.w3.org/1999/02/22-rdf-syntax-ns#">
   <cc:Work>
    <dc:type rdf:resource="http://purl.org/dc/dcmitype/StillImage"/>
    <dc:date>2023-07-09T21:12:59.547388</dc:date>
    <dc:format>image/svg+xml</dc:format>
    <dc:creator>
     <cc:Agent>
      <dc:title>Matplotlib v3.7.1, https://matplotlib.org/</dc:title>
     </cc:Agent>
    </dc:creator>
   </cc:Work>
  </rdf:RDF>
 </metadata>
 <defs>
  <style type="text/css">*{stroke-linejoin: round; stroke-linecap: butt}</style>
 </defs>
 <g id="figure_1">
  <g id="patch_1">
   <path d="M 0 345.6 
L 460.8 345.6 
L 460.8 0 
L 0 0 
z
" style="fill: #ffffff"/>
  </g>
  <g id="axes_1">
   <g id="patch_2">
    <path d="M 57.6 307.584 
L 414.72 307.584 
L 414.72 41.472 
L 57.6 41.472 
z
" style="fill: #ffffff"/>
   </g>
   <g id="matplotlib.axis_1">
    <g id="xtick_1">
     <g id="line2d_1">
      <defs>
       <path id="m4e48be6657" d="M 0 0 
L 0 3.5 
" style="stroke: #000000; stroke-width: 0.8"/>
      </defs>
      <g>
       <use xlink:href="#m4e48be6657" x="73.832727" y="307.584" style="stroke: #000000; stroke-width: 0.8"/>
      </g>
     </g>
     <g id="text_1">
      <!-- 0 -->
      <g transform="translate(70.651477 322.182437) scale(0.1 -0.1)">
       <defs>
        <path id="DejaVuSans-30" d="M 2034 4250 
Q 1547 4250 1301 3770 
Q 1056 3291 1056 2328 
Q 1056 1369 1301 889 
Q 1547 409 2034 409 
Q 2525 409 2770 889 
Q 3016 1369 3016 2328 
Q 3016 3291 2770 3770 
Q 2525 4250 2034 4250 
z
M 2034 4750 
Q 2819 4750 3233 4129 
Q 3647 3509 3647 2328 
Q 3647 1150 3233 529 
Q 2819 -91 2034 -91 
Q 1250 -91 836 529 
Q 422 1150 422 2328 
Q 422 3509 836 4129 
Q 1250 4750 2034 4750 
z
" transform="scale(0.015625)"/>
       </defs>
       <use xlink:href="#DejaVuSans-30"/>
      </g>
     </g>
    </g>
    <g id="xtick_2">
     <g id="line2d_2">
      <g>
       <use xlink:href="#m4e48be6657" x="152.632374" y="307.584" style="stroke: #000000; stroke-width: 0.8"/>
      </g>
     </g>
     <g id="text_2">
      <!-- 100 -->
      <g transform="translate(143.088624 322.182437) scale(0.1 -0.1)">
       <defs>
        <path id="DejaVuSans-31" d="M 794 531 
L 1825 531 
L 1825 4091 
L 703 3866 
L 703 4441 
L 1819 4666 
L 2450 4666 
L 2450 531 
L 3481 531 
L 3481 0 
L 794 0 
L 794 531 
z
" transform="scale(0.015625)"/>
       </defs>
       <use xlink:href="#DejaVuSans-31"/>
       <use xlink:href="#DejaVuSans-30" x="63.623047"/>
       <use xlink:href="#DejaVuSans-30" x="127.246094"/>
      </g>
     </g>
    </g>
    <g id="xtick_3">
     <g id="line2d_3">
      <g>
       <use xlink:href="#m4e48be6657" x="231.432021" y="307.584" style="stroke: #000000; stroke-width: 0.8"/>
      </g>
     </g>
     <g id="text_3">
      <!-- 200 -->
      <g transform="translate(221.888271 322.182437) scale(0.1 -0.1)">
       <defs>
        <path id="DejaVuSans-32" d="M 1228 531 
L 3431 531 
L 3431 0 
L 469 0 
L 469 531 
Q 828 903 1448 1529 
Q 2069 2156 2228 2338 
Q 2531 2678 2651 2914 
Q 2772 3150 2772 3378 
Q 2772 3750 2511 3984 
Q 2250 4219 1831 4219 
Q 1534 4219 1204 4116 
Q 875 4013 500 3803 
L 500 4441 
Q 881 4594 1212 4672 
Q 1544 4750 1819 4750 
Q 2544 4750 2975 4387 
Q 3406 4025 3406 3419 
Q 3406 3131 3298 2873 
Q 3191 2616 2906 2266 
Q 2828 2175 2409 1742 
Q 1991 1309 1228 531 
z
" transform="scale(0.015625)"/>
       </defs>
       <use xlink:href="#DejaVuSans-32"/>
       <use xlink:href="#DejaVuSans-30" x="63.623047"/>
       <use xlink:href="#DejaVuSans-30" x="127.246094"/>
      </g>
     </g>
    </g>
    <g id="xtick_4">
     <g id="line2d_4">
      <g>
       <use xlink:href="#m4e48be6657" x="310.231668" y="307.584" style="stroke: #000000; stroke-width: 0.8"/>
      </g>
     </g>
     <g id="text_4">
      <!-- 300 -->
      <g transform="translate(300.687918 322.182437) scale(0.1 -0.1)">
       <defs>
        <path id="DejaVuSans-33" d="M 2597 2516 
Q 3050 2419 3304 2112 
Q 3559 1806 3559 1356 
Q 3559 666 3084 287 
Q 2609 -91 1734 -91 
Q 1441 -91 1130 -33 
Q 819 25 488 141 
L 488 750 
Q 750 597 1062 519 
Q 1375 441 1716 441 
Q 2309 441 2620 675 
Q 2931 909 2931 1356 
Q 2931 1769 2642 2001 
Q 2353 2234 1838 2234 
L 1294 2234 
L 1294 2753 
L 1863 2753 
Q 2328 2753 2575 2939 
Q 2822 3125 2822 3475 
Q 2822 3834 2567 4026 
Q 2313 4219 1838 4219 
Q 1578 4219 1281 4162 
Q 984 4106 628 3988 
L 628 4550 
Q 988 4650 1302 4700 
Q 1616 4750 1894 4750 
Q 2613 4750 3031 4423 
Q 3450 4097 3450 3541 
Q 3450 3153 3228 2886 
Q 3006 2619 2597 2516 
z
" transform="scale(0.015625)"/>
       </defs>
       <use xlink:href="#DejaVuSans-33"/>
       <use xlink:href="#DejaVuSans-30" x="63.623047"/>
       <use xlink:href="#DejaVuSans-30" x="127.246094"/>
      </g>
     </g>
    </g>
    <g id="xtick_5">
     <g id="line2d_5">
      <g>
       <use xlink:href="#m4e48be6657" x="389.031315" y="307.584" style="stroke: #000000; stroke-width: 0.8"/>
      </g>
     </g>
     <g id="text_5">
      <!-- 400 -->
      <g transform="translate(379.487565 322.182437) scale(0.1 -0.1)">
       <defs>
        <path id="DejaVuSans-34" d="M 2419 4116 
L 825 1625 
L 2419 1625 
L 2419 4116 
z
M 2253 4666 
L 3047 4666 
L 3047 1625 
L 3713 1625 
L 3713 1100 
L 3047 1100 
L 3047 0 
L 2419 0 
L 2419 1100 
L 313 1100 
L 313 1709 
L 2253 4666 
z
" transform="scale(0.015625)"/>
       </defs>
       <use xlink:href="#DejaVuSans-34"/>
       <use xlink:href="#DejaVuSans-30" x="63.623047"/>
       <use xlink:href="#DejaVuSans-30" x="127.246094"/>
      </g>
     </g>
    </g>
    <g id="text_6">
     <!-- Residue -->
     <g transform="translate(216.420937 335.860562) scale(0.1 -0.1)">
      <defs>
       <path id="DejaVuSans-52" d="M 2841 2188 
Q 3044 2119 3236 1894 
Q 3428 1669 3622 1275 
L 4263 0 
L 3584 0 
L 2988 1197 
Q 2756 1666 2539 1819 
Q 2322 1972 1947 1972 
L 1259 1972 
L 1259 0 
L 628 0 
L 628 4666 
L 2053 4666 
Q 2853 4666 3247 4331 
Q 3641 3997 3641 3322 
Q 3641 2881 3436 2590 
Q 3231 2300 2841 2188 
z
M 1259 4147 
L 1259 2491 
L 2053 2491 
Q 2509 2491 2742 2702 
Q 2975 2913 2975 3322 
Q 2975 3731 2742 3939 
Q 2509 4147 2053 4147 
L 1259 4147 
z
" transform="scale(0.015625)"/>
       <path id="DejaVuSans-65" d="M 3597 1894 
L 3597 1613 
L 953 1613 
Q 991 1019 1311 708 
Q 1631 397 2203 397 
Q 2534 397 2845 478 
Q 3156 559 3463 722 
L 3463 178 
Q 3153 47 2828 -22 
Q 2503 -91 2169 -91 
Q 1331 -91 842 396 
Q 353 884 353 1716 
Q 353 2575 817 3079 
Q 1281 3584 2069 3584 
Q 2775 3584 3186 3129 
Q 3597 2675 3597 1894 
z
M 3022 2063 
Q 3016 2534 2758 2815 
Q 2500 3097 2075 3097 
Q 1594 3097 1305 2825 
Q 1016 2553 972 2059 
L 3022 2063 
z
" transform="scale(0.015625)"/>
       <path id="DejaVuSans-73" d="M 2834 3397 
L 2834 2853 
Q 2591 2978 2328 3040 
Q 2066 3103 1784 3103 
Q 1356 3103 1142 2972 
Q 928 2841 928 2578 
Q 928 2378 1081 2264 
Q 1234 2150 1697 2047 
L 1894 2003 
Q 2506 1872 2764 1633 
Q 3022 1394 3022 966 
Q 3022 478 2636 193 
Q 2250 -91 1575 -91 
Q 1294 -91 989 -36 
Q 684 19 347 128 
L 347 722 
Q 666 556 975 473 
Q 1284 391 1588 391 
Q 1994 391 2212 530 
Q 2431 669 2431 922 
Q 2431 1156 2273 1281 
Q 2116 1406 1581 1522 
L 1381 1569 
Q 847 1681 609 1914 
Q 372 2147 372 2553 
Q 372 3047 722 3315 
Q 1072 3584 1716 3584 
Q 2034 3584 2315 3537 
Q 2597 3491 2834 3397 
z
" transform="scale(0.015625)"/>
       <path id="DejaVuSans-69" d="M 603 3500 
L 1178 3500 
L 1178 0 
L 603 0 
L 603 3500 
z
M 603 4863 
L 1178 4863 
L 1178 4134 
L 603 4134 
L 603 4863 
z
" transform="scale(0.015625)"/>
       <path id="DejaVuSans-64" d="M 2906 2969 
L 2906 4863 
L 3481 4863 
L 3481 0 
L 2906 0 
L 2906 525 
Q 2725 213 2448 61 
Q 2172 -91 1784 -91 
Q 1150 -91 751 415 
Q 353 922 353 1747 
Q 353 2572 751 3078 
Q 1150 3584 1784 3584 
Q 2172 3584 2448 3432 
Q 2725 3281 2906 2969 
z
M 947 1747 
Q 947 1113 1208 752 
Q 1469 391 1925 391 
Q 2381 391 2643 752 
Q 2906 1113 2906 1747 
Q 2906 2381 2643 2742 
Q 2381 3103 1925 3103 
Q 1469 3103 1208 2742 
Q 947 2381 947 1747 
z
" transform="scale(0.015625)"/>
       <path id="DejaVuSans-75" d="M 544 1381 
L 544 3500 
L 1119 3500 
L 1119 1403 
Q 1119 906 1312 657 
Q 1506 409 1894 409 
Q 2359 409 2629 706 
Q 2900 1003 2900 1516 
L 2900 3500 
L 3475 3500 
L 3475 0 
L 2900 0 
L 2900 538 
Q 2691 219 2414 64 
Q 2138 -91 1772 -91 
Q 1169 -91 856 284 
Q 544 659 544 1381 
z
M 1991 3584 
L 1991 3584 
z
" transform="scale(0.015625)"/>
      </defs>
      <use xlink:href="#DejaVuSans-52"/>
      <use xlink:href="#DejaVuSans-65" x="64.982422"/>
      <use xlink:href="#DejaVuSans-73" x="126.505859"/>
      <use xlink:href="#DejaVuSans-69" x="178.605469"/>
      <use xlink:href="#DejaVuSans-64" x="206.388672"/>
      <use xlink:href="#DejaVuSans-75" x="269.865234"/>
      <use xlink:href="#DejaVuSans-65" x="333.244141"/>
     </g>
    </g>
   </g>
   <g id="matplotlib.axis_2">
    <g id="ytick_1">
     <g id="line2d_6">
      <defs>
       <path id="me22157ed83" d="M 0 0 
L -3.5 0 
" style="stroke: #000000; stroke-width: 0.8"/>
      </defs>
      <g>
       <use xlink:href="#me22157ed83" x="57.6" y="295.488" style="stroke: #000000; stroke-width: 0.8"/>
      </g>
     </g>
     <g id="text_7">
      <!-- 0.0 -->
      <g transform="translate(34.696875 299.287219) scale(0.1 -0.1)">
       <defs>
        <path id="DejaVuSans-2e" d="M 684 794 
L 1344 794 
L 1344 0 
L 684 0 
L 684 794 
z
" transform="scale(0.015625)"/>
       </defs>
       <use xlink:href="#DejaVuSans-30"/>
       <use xlink:href="#DejaVuSans-2e" x="63.623047"/>
       <use xlink:href="#DejaVuSans-30" x="95.410156"/>
      </g>
     </g>
    </g>
    <g id="ytick_2">
     <g id="line2d_7">
      <g>
       <use xlink:href="#me22157ed83" x="57.6" y="240.412514" style="stroke: #000000; stroke-width: 0.8"/>
      </g>
     </g>
     <g id="text_8">
      <!-- 0.2 -->
      <g transform="translate(34.696875 244.211733) scale(0.1 -0.1)">
       <use xlink:href="#DejaVuSans-30"/>
       <use xlink:href="#DejaVuSans-2e" x="63.623047"/>
       <use xlink:href="#DejaVuSans-32" x="95.410156"/>
      </g>
     </g>
    </g>
    <g id="ytick_3">
     <g id="line2d_8">
      <g>
       <use xlink:href="#me22157ed83" x="57.6" y="185.337028" style="stroke: #000000; stroke-width: 0.8"/>
      </g>
     </g>
     <g id="text_9">
      <!-- 0.4 -->
      <g transform="translate(34.696875 189.136247) scale(0.1 -0.1)">
       <use xlink:href="#DejaVuSans-30"/>
       <use xlink:href="#DejaVuSans-2e" x="63.623047"/>
       <use xlink:href="#DejaVuSans-34" x="95.410156"/>
      </g>
     </g>
    </g>
    <g id="ytick_4">
     <g id="line2d_9">
      <g>
       <use xlink:href="#me22157ed83" x="57.6" y="130.261542" style="stroke: #000000; stroke-width: 0.8"/>
      </g>
     </g>
     <g id="text_10">
      <!-- 0.6 -->
      <g transform="translate(34.696875 134.060761) scale(0.1 -0.1)">
       <defs>
        <path id="DejaVuSans-36" d="M 2113 2584 
Q 1688 2584 1439 2293 
Q 1191 2003 1191 1497 
Q 1191 994 1439 701 
Q 1688 409 2113 409 
Q 2538 409 2786 701 
Q 3034 994 3034 1497 
Q 3034 2003 2786 2293 
Q 2538 2584 2113 2584 
z
M 3366 4563 
L 3366 3988 
Q 3128 4100 2886 4159 
Q 2644 4219 2406 4219 
Q 1781 4219 1451 3797 
Q 1122 3375 1075 2522 
Q 1259 2794 1537 2939 
Q 1816 3084 2150 3084 
Q 2853 3084 3261 2657 
Q 3669 2231 3669 1497 
Q 3669 778 3244 343 
Q 2819 -91 2113 -91 
Q 1303 -91 875 529 
Q 447 1150 447 2328 
Q 447 3434 972 4092 
Q 1497 4750 2381 4750 
Q 2619 4750 2861 4703 
Q 3103 4656 3366 4563 
z
" transform="scale(0.015625)"/>
       </defs>
       <use xlink:href="#DejaVuSans-30"/>
       <use xlink:href="#DejaVuSans-2e" x="63.623047"/>
       <use xlink:href="#DejaVuSans-36" x="95.410156"/>
      </g>
     </g>
    </g>
    <g id="ytick_5">
     <g id="line2d_10">
      <g>
       <use xlink:href="#me22157ed83" x="57.6" y="75.186057" style="stroke: #000000; stroke-width: 0.8"/>
      </g>
     </g>
     <g id="text_11">
      <!-- 0.8 -->
      <g transform="translate(34.696875 78.985275) scale(0.1 -0.1)">
       <defs>
        <path id="DejaVuSans-38" d="M 2034 2216 
Q 1584 2216 1326 1975 
Q 1069 1734 1069 1313 
Q 1069 891 1326 650 
Q 1584 409 2034 409 
Q 2484 409 2743 651 
Q 3003 894 3003 1313 
Q 3003 1734 2745 1975 
Q 2488 2216 2034 2216 
z
M 1403 2484 
Q 997 2584 770 2862 
Q 544 3141 544 3541 
Q 544 4100 942 4425 
Q 1341 4750 2034 4750 
Q 2731 4750 3128 4425 
Q 3525 4100 3525 3541 
Q 3525 3141 3298 2862 
Q 3072 2584 2669 2484 
Q 3125 2378 3379 2068 
Q 3634 1759 3634 1313 
Q 3634 634 3220 271 
Q 2806 -91 2034 -91 
Q 1263 -91 848 271 
Q 434 634 434 1313 
Q 434 1759 690 2068 
Q 947 2378 1403 2484 
z
M 1172 3481 
Q 1172 3119 1398 2916 
Q 1625 2713 2034 2713 
Q 2441 2713 2670 2916 
Q 2900 3119 2900 3481 
Q 2900 3844 2670 4047 
Q 2441 4250 2034 4250 
Q 1625 4250 1398 4047 
Q 1172 3844 1172 3481 
z
" transform="scale(0.015625)"/>
       </defs>
       <use xlink:href="#DejaVuSans-30"/>
       <use xlink:href="#DejaVuSans-2e" x="63.623047"/>
       <use xlink:href="#DejaVuSans-38" x="95.410156"/>
      </g>
     </g>
    </g>
    <g id="text_12">
     <!-- Evolutionary trace -->
     <g transform="translate(28.617187 220.414719) rotate(-90) scale(0.1 -0.1)">
      <defs>
       <path id="DejaVuSans-45" d="M 628 4666 
L 3578 4666 
L 3578 4134 
L 1259 4134 
L 1259 2753 
L 3481 2753 
L 3481 2222 
L 1259 2222 
L 1259 531 
L 3634 531 
L 3634 0 
L 628 0 
L 628 4666 
z
" transform="scale(0.015625)"/>
       <path id="DejaVuSans-76" d="M 191 3500 
L 800 3500 
L 1894 563 
L 2988 3500 
L 3597 3500 
L 2284 0 
L 1503 0 
L 191 3500 
z
" transform="scale(0.015625)"/>
       <path id="DejaVuSans-6f" d="M 1959 3097 
Q 1497 3097 1228 2736 
Q 959 2375 959 1747 
Q 959 1119 1226 758 
Q 1494 397 1959 397 
Q 2419 397 2687 759 
Q 2956 1122 2956 1747 
Q 2956 2369 2687 2733 
Q 2419 3097 1959 3097 
z
M 1959 3584 
Q 2709 3584 3137 3096 
Q 3566 2609 3566 1747 
Q 3566 888 3137 398 
Q 2709 -91 1959 -91 
Q 1206 -91 779 398 
Q 353 888 353 1747 
Q 353 2609 779 3096 
Q 1206 3584 1959 3584 
z
" transform="scale(0.015625)"/>
       <path id="DejaVuSans-6c" d="M 603 4863 
L 1178 4863 
L 1178 0 
L 603 0 
L 603 4863 
z
" transform="scale(0.015625)"/>
       <path id="DejaVuSans-74" d="M 1172 4494 
L 1172 3500 
L 2356 3500 
L 2356 3053 
L 1172 3053 
L 1172 1153 
Q 1172 725 1289 603 
Q 1406 481 1766 481 
L 2356 481 
L 2356 0 
L 1766 0 
Q 1100 0 847 248 
Q 594 497 594 1153 
L 594 3053 
L 172 3053 
L 172 3500 
L 594 3500 
L 594 4494 
L 1172 4494 
z
" transform="scale(0.015625)"/>
       <path id="DejaVuSans-6e" d="M 3513 2113 
L 3513 0 
L 2938 0 
L 2938 2094 
Q 2938 2591 2744 2837 
Q 2550 3084 2163 3084 
Q 1697 3084 1428 2787 
Q 1159 2491 1159 1978 
L 1159 0 
L 581 0 
L 581 3500 
L 1159 3500 
L 1159 2956 
Q 1366 3272 1645 3428 
Q 1925 3584 2291 3584 
Q 2894 3584 3203 3211 
Q 3513 2838 3513 2113 
z
" transform="scale(0.015625)"/>
       <path id="DejaVuSans-61" d="M 2194 1759 
Q 1497 1759 1228 1600 
Q 959 1441 959 1056 
Q 959 750 1161 570 
Q 1363 391 1709 391 
Q 2188 391 2477 730 
Q 2766 1069 2766 1631 
L 2766 1759 
L 2194 1759 
z
M 3341 1997 
L 3341 0 
L 2766 0 
L 2766 531 
Q 2569 213 2275 61 
Q 1981 -91 1556 -91 
Q 1019 -91 701 211 
Q 384 513 384 1019 
Q 384 1609 779 1909 
Q 1175 2209 1959 2209 
L 2766 2209 
L 2766 2266 
Q 2766 2663 2505 2880 
Q 2244 3097 1772 3097 
Q 1472 3097 1187 3025 
Q 903 2953 641 2809 
L 641 3341 
Q 956 3463 1253 3523 
Q 1550 3584 1831 3584 
Q 2591 3584 2966 3190 
Q 3341 2797 3341 1997 
z
" transform="scale(0.015625)"/>
       <path id="DejaVuSans-72" d="M 2631 2963 
Q 2534 3019 2420 3045 
Q 2306 3072 2169 3072 
Q 1681 3072 1420 2755 
Q 1159 2438 1159 1844 
L 1159 0 
L 581 0 
L 581 3500 
L 1159 3500 
L 1159 2956 
Q 1341 3275 1631 3429 
Q 1922 3584 2338 3584 
Q 2397 3584 2469 3576 
Q 2541 3569 2628 3553 
L 2631 2963 
z
" transform="scale(0.015625)"/>
       <path id="DejaVuSans-79" d="M 2059 -325 
Q 1816 -950 1584 -1140 
Q 1353 -1331 966 -1331 
L 506 -1331 
L 506 -850 
L 844 -850 
Q 1081 -850 1212 -737 
Q 1344 -625 1503 -206 
L 1606 56 
L 191 3500 
L 800 3500 
L 1894 763 
L 2988 3500 
L 3597 3500 
L 2059 -325 
z
" transform="scale(0.015625)"/>
       <path id="DejaVuSans-20" transform="scale(0.015625)"/>
       <path id="DejaVuSans-63" d="M 3122 3366 
L 3122 2828 
Q 2878 2963 2633 3030 
Q 2388 3097 2138 3097 
Q 1578 3097 1268 2742 
Q 959 2388 959 1747 
Q 959 1106 1268 751 
Q 1578 397 2138 397 
Q 2388 397 2633 464 
Q 2878 531 3122 666 
L 3122 134 
Q 2881 22 2623 -34 
Q 2366 -91 2075 -91 
Q 1284 -91 818 406 
Q 353 903 353 1747 
Q 353 2603 823 3093 
Q 1294 3584 2113 3584 
Q 2378 3584 2631 3529 
Q 2884 3475 3122 3366 
z
" transform="scale(0.015625)"/>
      </defs>
      <use xlink:href="#DejaVuSans-45"/>
      <use xlink:href="#DejaVuSans-76" x="63.183594"/>
      <use xlink:href="#DejaVuSans-6f" x="122.363281"/>
      <use xlink:href="#DejaVuSans-6c" x="183.544922"/>
      <use xlink:href="#DejaVuSans-75" x="211.328125"/>
      <use xlink:href="#DejaVuSans-74" x="274.707031"/>
      <use xlink:href="#DejaVuSans-69" x="313.916016"/>
      <use xlink:href="#DejaVuSans-6f" x="341.699219"/>
      <use xlink:href="#DejaVuSans-6e" x="402.880859"/>
      <use xlink:href="#DejaVuSans-61" x="466.259766"/>
      <use xlink:href="#DejaVuSans-72" x="527.539062"/>
      <use xlink:href="#DejaVuSans-79" x="568.652344"/>
      <use xlink:href="#DejaVuSans-20" x="627.832031"/>
      <use xlink:href="#DejaVuSans-74" x="659.619141"/>
      <use xlink:href="#DejaVuSans-72" x="698.828125"/>
      <use xlink:href="#DejaVuSans-61" x="739.941406"/>
      <use xlink:href="#DejaVuSans-63" x="801.220703"/>
      <use xlink:href="#DejaVuSans-65" x="856.201172"/>
     </g>
    </g>
   </g>
   <g id="line2d_11">
    <path d="M 73.832727 295.488 
L 84.076681 295.488 
L 84.864678 290.19228 
L 85.652674 289.229422 
L 86.440671 287.838627 
L 87.228667 295.488 
L 88.016664 295.488 
L 88.80466 275.818184 
L 89.592657 290.19228 
L 90.380653 295.488 
L 92.744643 295.488 
L 93.532639 281.719129 
L 94.320635 287.510797 
L 95.108632 286.767715 
L 95.896628 274.208835 
L 96.684625 274.34715 
L 97.472621 262.232102 
L 98.260618 246.07198 
L 99.048614 256.774989 
L 99.836611 203.224564 
L 100.624607 199.891546 
L 101.412604 165.611733 
L 102.2006 141.650454 
L 102.988597 234.007903 
L 103.776593 197.813072 
L 104.56459 123.455091 
L 105.352586 195.352568 
L 106.140583 194.744382 
L 106.928579 137.018724 
L 107.716575 115.743285 
L 108.504572 130.558844 
L 109.292568 181.175456 
L 110.080565 87.935559 
L 110.868561 106.707243 
L 111.656558 137.949946 
L 112.444554 77.903456 
L 113.232551 65.423898 
L 114.020547 123.855842 
L 114.808544 91.584773 
L 115.59654 71.93322 
L 116.384537 93.924919 
L 117.172533 109.754422 
L 117.96053 85.598527 
L 118.748526 90.164805 
L 119.536523 128.341596 
L 120.324519 119.189323 
L 121.112515 96.984324 
L 121.900512 107.819822 
L 122.688508 110.920263 
L 123.476505 71.509773 
L 124.264501 89.147404 
L 125.052498 109.3347 
L 125.840494 116.370728 
L 126.628491 86.865201 
L 127.416487 68.433976 
L 128.204484 110.558943 
L 128.99248 75.527031 
L 129.780477 91.719267 
L 130.568473 100.164335 
L 131.35647 69.248584 
L 132.144466 63.927647 
L 132.932462 68.543348 
L 133.720459 124.785058 
L 134.508455 80.695974 
L 135.296452 61.414281 
L 136.084448 83.342459 
L 136.872445 91.643614 
L 137.660441 83.756067 
L 138.448438 72.659853 
L 139.236434 141.418165 
L 140.024431 129.551702 
L 140.812427 85.125122 
L 141.600424 87.52837 
L 142.38842 72.443535 
L 143.176417 105.246755 
L 143.964413 93.189536 
L 145.540406 120.604706 
L 146.328402 140.293531 
L 147.116399 129.312478 
L 147.904395 134.121992 
L 148.692392 141.731284 
L 149.480388 110.030002 
L 150.268385 144.124656 
L 151.056381 73.308865 
L 151.844378 137.32617 
L 152.632374 99.512458 
L 153.420371 85.011222 
L 154.208367 167.337847 
L 154.996364 161.962558 
L 155.78436 118.914278 
L 156.572357 65.423898 
L 157.360353 120.609558 
L 158.14835 133.940348 
L 158.936346 78.69705 
L 159.724342 114.149315 
L 160.512339 117.445366 
L 161.300335 123.374872 
L 162.088332 69.784881 
L 162.876328 90.149751 
L 163.664325 99.575636 
L 164.452321 105.373207 
L 165.240318 85.294634 
L 166.028314 77.508379 
L 166.816311 83.95074 
L 167.604307 66.277097 
L 168.392304 72.288312 
L 169.1803 96.942161 
L 169.968297 87.288935 
L 170.756293 74.687434 
L 171.544289 80.146304 
L 172.332286 112.088971 
L 173.120282 74.2927 
L 173.908279 81.554293 
L 174.696275 104.330894 
L 175.484272 69.659709 
L 176.272268 61.250366 
L 177.060265 76.259338 
L 177.848261 125.856505 
L 178.636258 83.264475 
L 179.424254 80.650372 
L 180.212251 94.711578 
L 181.000247 143.637973 
L 181.788244 66.243473 
L 182.57624 98.121987 
L 183.364237 109.563894 
L 184.152233 70.869109 
L 184.940229 112.806472 
L 185.728226 142.847168 
L 186.516222 127.794925 
L 187.304219 101.383478 
L 188.092215 88.38304 
L 188.880212 133.104935 
L 189.668208 152.320623 
L 190.456205 109.085101 
L 191.244201 96.65894 
L 192.032198 137.871293 
L 192.820194 189.394176 
L 193.608191 103.632764 
L 194.396187 107.924036 
L 195.184184 137.680556 
L 195.97218 182.272408 
L 196.760177 97.441338 
L 197.548173 63.485573 
L 198.336169 170.756204 
L 199.124166 124.872613 
L 199.912162 96.1436 
L 200.700159 142.227099 
L 201.488155 113.380901 
L 202.276152 110.305524 
L 203.064148 90.785505 
L 203.852145 109.794694 
L 204.640141 103.163142 
L 205.428138 85.50247 
L 206.216134 102.057555 
L 207.004131 180.888929 
L 207.792127 137.36862 
L 208.580124 141.705513 
L 209.36812 123.607238 
L 210.944113 191.712907 
L 211.732109 195.771812 
L 212.520106 215.406935 
L 213.308102 217.669041 
L 214.096099 269.089639 
L 214.884095 228.95412 
L 215.672092 175.22121 
L 216.460088 256.354312 
L 217.248085 243.5794 
L 218.036081 135.908476 
L 218.824078 178.755129 
L 219.612074 241.582158 
L 220.400071 189.048961 
L 221.188067 180.421638 
L 221.976064 215.653801 
L 222.76406 130.806895 
L 223.552056 92.06966 
L 224.340053 159.048154 
L 225.128049 114.352891 
L 225.916046 145.69314 
L 226.704042 155.248304 
L 227.492039 106.949581 
L 228.280035 161.988616 
L 229.068032 149.803073 
L 229.856028 85.083436 
L 231.432021 117.122006 
L 232.220018 120.249614 
L 233.008014 81.21672 
L 233.796011 84.727236 
L 234.584007 141.301189 
L 235.372004 122.681958 
L 236.16 83.373599 
L 236.947996 70.635501 
L 237.735993 93.50854 
L 238.523989 138.630805 
L 239.311986 64.077902 
L 240.099982 98.475799 
L 240.887979 175.155873 
L 241.675975 121.321233 
L 242.463972 86.80722 
L 243.251968 130.290849 
L 244.039965 124.969873 
L 244.827961 105.312761 
L 245.615958 68.33066 
L 246.403954 143.778275 
L 247.191951 107.522329 
L 247.979947 77.419353 
L 248.767944 97.376536 
L 249.55594 132.292313 
L 250.343936 117.191011 
L 251.131933 76.609711 
L 251.919929 146.740783 
L 252.707926 132.846874 
L 253.495922 106.214294 
L 254.283919 129.061447 
L 255.071915 160.015636 
L 255.859912 129.39667 
L 256.647908 116.880756 
L 257.435905 167.263417 
L 258.223901 207.972123 
L 259.011898 204.237628 
L 259.799894 185.172616 
L 260.587891 217.866541 
L 261.375887 171.088237 
L 262.163883 171.515754 
L 262.95188 227.61697 
L 263.739876 257.631627 
L 264.527873 264.105702 
L 265.315869 260.893882 
L 266.103866 277.511973 
L 266.891862 282.470158 
L 267.679859 280.954191 
L 268.467855 278.902768 
L 269.255852 260.792629 
L 270.043848 263.786583 
L 270.831845 295.488 
L 271.619841 249.825427 
L 272.407838 273.045916 
L 273.195834 292.428251 
L 273.983831 244.19668 
L 274.771827 258.979017 
L 275.559823 254.451597 
L 276.34782 244.415406 
L 277.135816 174.15878 
L 277.923813 204.763819 
L 278.711809 199.080472 
L 279.499806 173.232984 
L 280.287802 152.226839 
L 281.075799 140.195736 
L 281.863795 158.762755 
L 282.651792 138.397159 
L 283.439788 102.418551 
L 284.227785 72.923302 
L 285.015781 113.091814 
L 285.803778 68.135089 
L 286.591774 70.454793 
L 287.379771 93.59451 
L 288.167767 89.813228 
L 288.955763 72.031512 
L 289.74376 75.018435 
L 290.531756 83.337835 
L 291.319753 93.30015 
L 292.107749 79.905399 
L 292.895746 83.986045 
L 293.683742 73.573995 
L 294.471739 117.578217 
L 295.259735 57.19767 
L 296.047732 99.531313 
L 296.835728 124.395501 
L 297.623725 67.262212 
L 298.411721 53.804129 
L 299.199718 86.0163 
L 299.987714 54.958891 
L 300.775711 71.557495 
L 301.563707 69.962895 
L 302.351703 126.770685 
L 303.1397 133.168438 
L 303.927696 92.204154 
L 305.503689 151.841811 
L 306.291686 162.463588 
L 307.079682 118.849228 
L 307.867679 127.125166 
L 308.655675 123.408094 
L 309.443672 181.832683 
L 310.231668 200.545965 
L 311.019665 117.426854 
L 311.807661 155.288958 
L 312.595658 114.136611 
L 313.383654 208.913527 
L 314.17165 221.260884 
L 314.959647 137.947863 
L 315.747643 109.082045 
L 316.53564 132.129927 
L 317.323636 151.207222 
L 318.111633 106.276861 
L 318.899629 95.850024 
L 319.687626 62.60429 
L 320.475622 74.490182 
L 321.263619 69.69467 
L 322.051615 73.464718 
L 322.839612 120.208119 
L 323.627608 57.756528 
L 324.415605 55.366099 
L 325.203601 118.21101 
L 325.991598 105.828253 
L 326.779594 56.042775 
L 327.56759 54.791059 
L 328.355587 109.614482 
L 329.143583 75.931851 
L 329.93158 53.568 
L 330.719576 95.579965 
L 331.507573 83.794811 
L 332.295569 86.772259 
L 333.083566 110.634749 
L 333.871562 95.56898 
L 334.659559 65.310991 
L 335.447555 82.129678 
L 336.235552 139.236202 
L 337.023548 89.254522 
L 337.811545 80.003748 
L 338.599541 154.135247 
L 339.387538 136.098354 
L 340.175534 95.467957 
L 340.96353 83.462013 
L 341.751527 170.667082 
L 342.539523 138.01704 
L 343.32752 249.725263 
L 344.115516 239.05945 
L 344.903513 295.488 
L 345.691509 285.161346 
L 346.479506 295.488 
L 347.267502 287.226677 
L 348.055499 295.488 
L 356.72346 295.488 
L 357.511456 285.653092 
L 358.299453 295.488 
L 361.451439 295.488 
L 362.239435 287.838627 
L 363.027432 295.488 
L 363.815428 295.488 
L 364.603425 287.226677 
L 365.391421 288.603564 
L 366.179417 295.488 
L 398.487273 295.488 
L 398.487273 295.488 
" clip-path="url(#pb87ffb6842)" style="fill: none; stroke: #1f77b4; stroke-width: 1.5; stroke-linecap: square"/>
   </g>
   <g id="patch_3">
    <path d="M 57.6 307.584 
L 57.6 41.472 
" style="fill: none; stroke: #000000; stroke-width: 0.8; stroke-linejoin: miter; stroke-linecap: square"/>
   </g>
   <g id="patch_4">
    <path d="M 414.72 307.584 
L 414.72 41.472 
" style="fill: none; stroke: #000000; stroke-width: 0.8; stroke-linejoin: miter; stroke-linecap: square"/>
   </g>
   <g id="patch_5">
    <path d="M 57.6 307.584 
L 414.72 307.584 
" style="fill: none; stroke: #000000; stroke-width: 0.8; stroke-linejoin: miter; stroke-linecap: square"/>
   </g>
   <g id="patch_6">
    <path d="M 57.6 41.472 
L 414.72 41.472 
" style="fill: none; stroke: #000000; stroke-width: 0.8; stroke-linejoin: miter; stroke-linecap: square"/>
   </g>
  </g>
 </g>
 <defs>
  <clipPath id="pb87ffb6842">
   <rect x="57.6" y="41.472" width="357.12" height="266.112"/>
  </clipPath>
 </defs>
</svg>
